<?xml version="1.0" encoding="UTF-8" standalone="no"?>
<!DOCTYPE svg PUBLIC "-//W3C//DTD SVG 1.1//EN"
 "http://www.w3.org/Graphics/SVG/1.1/DTD/svg11.dtd">
<!-- Generated by graphviz version 2.38.0 (20140413.2041)
 -->
<!-- Title: concepts  Pages: 1 -->
<svg width="1186pt" height="914pt"
 viewBox="0.00 0.00 1186.28 914.40" xmlns="http://www.w3.org/2000/svg" xmlns:xlink="http://www.w3.org/1999/xlink">
<g id="graph0" class="graph" transform="scale(1 1) rotate(0) translate(4 910.4)">
<title>concepts </title>
<polygon fill="white" stroke="none" points="-4,4 -4,-910.4 1182.28,-910.4 1182.28,4 -4,4"/>
<text text-anchor="middle" x="589.14" y="-41.8" font-family="Times,serif" font-size="14.00">A conceptual example of the Drupal 8 GraphQL 3.x data</text>
<text text-anchor="middle" x="589.14" y="-25" font-family="Times,serif" font-size="14.00">User entity is typical of all single&#45;bundle entities.</text>
<text text-anchor="middle" x="589.14" y="-8.2" font-family="Times,serif" font-size="14.00">Blue: has_field, Light gray: takes argument, Green: is_a, Orange: is_array_of</text>
<g id="clust1" class="cluster"><title>cluster_core_types</title>
<polygon fill="none" stroke="black" points="583,-821.6 583,-898.4 877,-898.4 877,-821.6 583,-821.6"/>
<text text-anchor="middle" x="730" y="-829.8" font-family="Times,serif" font-size="14.00">GraphQL core types</text>
</g>
<g id="clust2" class="cluster"><title>cluster_core</title>
<polygon fill="none" stroke="black" points="8,-143.2 8,-584.8 150,-584.8 150,-143.2 8,-143.2"/>
<text text-anchor="middle" x="79" y="-151.4" font-family="Times,serif" font-size="14.00">GraphQL Core</text>
</g>
<g id="clust3" class="cluster"><title>cluster_entity</title>
<polygon fill="none" stroke="black" points="158,-436 158,-813.6 408,-813.6 408,-436 158,-436"/>
<text text-anchor="middle" x="283" y="-444.2" font-family="Times,serif" font-size="14.00">Entity system</text>
</g>
<g id="clust4" class="cluster"><title>cluster_userEntity</title>
<polygon fill="none" stroke="black" points="416,-66.4 416,-512.8 673,-512.8 673,-66.4 416,-66.4"/>
<text text-anchor="middle" x="544.5" y="-74.6" font-family="Times,serif" font-size="14.00">User entity</text>
</g>
<g id="clust5" class="cluster"><title>cluster_relay</title>
<polygon fill="none" stroke="black" points="598,-592.8 598,-813.6 1040,-813.6 1040,-592.8 598,-592.8"/>
<text text-anchor="middle" x="819" y="-601" font-family="Times,serif" font-size="14.00">Relay</text>
</g>
<!-- Schema -->
<g id="node1" class="node"><title>Schema</title>
<ellipse fill="none" stroke="black" cx="100" cy="-194" rx="41.7114" ry="18"/>
<text text-anchor="middle" x="100" y="-189.8" font-family="Times,serif" font-size="14.00">Schema</text>
</g>
<!-- query -->
<g id="node34" class="node"><title>query</title>
<text text-anchor="middle" x="101" y="-261.8" font-family="Times,serif" font-size="14.00">query</text>
</g>
<!-- Schema&#45;&gt;query -->
<g id="edge24" class="edge"><title>Schema&#45;&gt;query</title>
<path fill="none" stroke="mediumblue" d="M100.247,-212.303C100.357,-220.017 100.49,-229.288 100.613,-237.888"/>
<polygon fill="mediumblue" stroke="mediumblue" points="97.1131,-237.947 100.756,-247.896 104.112,-237.847 97.1131,-237.947"/>
</g>
<!-- Boolean -->
<g id="node2" class="node"><title>Boolean</title>
<polygon fill="none" stroke="black" points="797.157,-890.4 734.843,-890.4 734.843,-854.4 797.157,-854.4 797.157,-890.4"/>
<text text-anchor="middle" x="766" y="-868.2" font-family="Times,serif" font-size="14.00">Boolean</text>
</g>
<!-- DrupalEntityType -->
<g id="node3" class="node"><title>DrupalEntityType</title>
<polygon fill="none" stroke="black" points="336.864,-733.6 219.136,-733.6 219.136,-697.6 336.864,-697.6 336.864,-733.6"/>
<text text-anchor="middle" x="278" y="-711.4" font-family="Times,serif" font-size="14.00">DrupalEntityType</text>
</g>
<!-- label -->
<g id="node21" class="node"><title>label</title>
<text text-anchor="middle" x="273" y="-783.4" font-family="Times,serif" font-size="14.00">label</text>
</g>
<!-- DrupalEntityType&#45;&gt;label -->
<g id="edge1" class="edge"><title>DrupalEntityType&#45;&gt;label</title>
<path fill="none" stroke="mediumblue" d="M276.764,-733.903C276.213,-741.617 275.551,-750.888 274.937,-759.488"/>
<polygon fill="mediumblue" stroke="mediumblue" points="271.443,-759.272 274.222,-769.496 278.425,-759.77 271.443,-759.272"/>
</g>
<!-- pluralLabel -->
<g id="node22" class="node"><title>pluralLabel</title>
<text text-anchor="middle" x="358" y="-783.4" font-family="Times,serif" font-size="14.00">pluralLabel</text>
</g>
<!-- DrupalEntityType&#45;&gt;pluralLabel -->
<g id="edge2" class="edge"><title>DrupalEntityType&#45;&gt;pluralLabel</title>
<path fill="none" stroke="mediumblue" d="M297.775,-733.903C307.754,-742.635 320.011,-753.36 330.857,-762.85"/>
<polygon fill="mediumblue" stroke="mediumblue" points="328.622,-765.545 338.452,-769.496 333.231,-760.277 328.622,-765.545"/>
</g>
<!-- Entity -->
<g id="node4" class="node"><title>Entity</title>
<polygon fill="none" stroke="black" points="260,-576.8 206,-576.8 206,-540.8 260,-540.8 260,-576.8"/>
<text text-anchor="middle" x="233" y="-554.6" font-family="Times,serif" font-size="14.00">Entity</text>
</g>
<!-- entityId -->
<g id="node18" class="node"><title>entityId</title>
<text text-anchor="middle" x="370" y="-639.4" font-family="Times,serif" font-size="14.00">entityId</text>
</g>
<!-- Entity&#45;&gt;entityId -->
<g id="edge3" class="edge"><title>Entity&#45;&gt;entityId</title>
<path fill="none" stroke="mediumblue" d="M260.259,-572.446C270.124,-576.729 281.438,-581.308 292,-584.8 306.329,-589.537 312.032,-585.081 325,-592.8 335.426,-599.006 344.815,-608.402 352.287,-617.367"/>
<polygon fill="mediumblue" stroke="mediumblue" points="349.651,-619.677 358.583,-625.375 355.153,-615.35 349.651,-619.677"/>
</g>
<!-- entityType -->
<g id="node19" class="node"><title>entityType</title>
<text text-anchor="middle" x="278" y="-639.4" font-family="Times,serif" font-size="14.00">entityType</text>
</g>
<!-- Entity&#45;&gt;entityType -->
<g id="edge4" class="edge"><title>Entity&#45;&gt;entityType</title>
<path fill="none" stroke="mediumblue" d="M242.324,-576.956C248.539,-588.391 256.824,-603.636 263.846,-616.556"/>
<polygon fill="mediumblue" stroke="mediumblue" points="260.838,-618.351 268.688,-625.466 266.988,-615.008 260.838,-618.351"/>
</g>
<!-- id -->
<g id="node23" class="node"><title>id</title>
<text text-anchor="middle" x="115" y="-554.6" font-family="Times,serif" font-size="14.00">id</text>
</g>
<!-- Entity&#45;&gt;id -->
<g id="edge5" class="edge"><title>Entity&#45;&gt;id</title>
<path fill="none" stroke="mediumblue" d="M205.688,-558.8C187.996,-558.8 170.304,-558.8 152.612,-558.8"/>
<polygon fill="mediumblue" stroke="mediumblue" points="152.195,-555.3 142.195,-558.8 152.195,-562.3 152.195,-555.3"/>
</g>
<!-- EntityUser -->
<g id="node5" class="node"><title>EntityUser</title>
<polygon fill="none" stroke="black" points="559.152,-504.8 482.848,-504.8 482.848,-468.8 559.152,-468.8 559.152,-504.8"/>
<text text-anchor="middle" x="521" y="-482.6" font-family="Times,serif" font-size="14.00">EntityUser</text>
</g>
<!-- EntityUser&#45;&gt;entityId -->
<g id="edge7" class="edge"><title>EntityUser&#45;&gt;entityId</title>
<path fill="none" stroke="mediumblue" d="M521.315,-504.86C520.814,-525.943 516.942,-561.836 498,-584.8 475.724,-611.805 438.174,-626.699 409.489,-634.573"/>
<polygon fill="mediumblue" stroke="mediumblue" points="408.567,-631.196 399.752,-637.074 410.309,-637.976 408.567,-631.196"/>
</g>
<!-- EntityUser&#45;&gt;entityType -->
<g id="edge8" class="edge"><title>EntityUser&#45;&gt;entityType</title>
<path fill="none" stroke="mediumblue" d="M498.575,-504.854C469.175,-526.437 415.295,-563.377 364,-584.8 350.074,-590.616 344.272,-585.617 331,-592.8 319.202,-599.185 308.067,-608.848 299.078,-617.969"/>
<polygon fill="mediumblue" stroke="mediumblue" points="296.371,-615.739 292.064,-625.419 301.467,-620.537 296.371,-615.739"/>
</g>
<!-- EntityUser&#45;&gt;id -->
<g id="edge6" class="edge"><title>EntityUser&#45;&gt;id</title>
<path fill="none" stroke="mediumblue" d="M482.63,-497.76C461.844,-502.861 435.645,-508.82 412,-512.8 298.26,-531.947 265.476,-511.195 154,-540.8 153.277,-540.992 152.551,-541.195 151.822,-541.409"/>
<polygon fill="mediumblue" stroke="mediumblue" points="150.651,-538.11 142.326,-544.662 152.92,-544.732 150.651,-538.11"/>
</g>
<!-- EntityUserConnection -->
<g id="node6" class="node"><title>EntityUserConnection</title>
<polygon fill="none" stroke="black" points="664.698,-212 523.302,-212 523.302,-176 664.698,-176 664.698,-212"/>
<text text-anchor="middle" x="594" y="-189.8" font-family="Times,serif" font-size="14.00">EntityUserConnection</text>
</g>
<!-- userEdges -->
<g id="node20" class="node"><title>userEdges</title>
<text text-anchor="middle" x="603" y="-261.8" font-family="Times,serif" font-size="14.00">edges</text>
</g>
<!-- EntityUserConnection&#45;&gt;userEdges -->
<g id="edge10" class="edge"><title>EntityUserConnection&#45;&gt;userEdges</title>
<path fill="none" stroke="mediumblue" d="M596.225,-212.303C597.217,-220.017 598.408,-229.288 599.514,-237.888"/>
<polygon fill="mediumblue" stroke="mediumblue" points="596.054,-238.424 600.801,-247.896 602.997,-237.531 596.054,-238.424"/>
</g>
<!-- pageInfo -->
<g id="node24" class="node"><title>pageInfo</title>
<text text-anchor="middle" x="639" y="-639.4" font-family="Times,serif" font-size="14.00">pageInfo</text>
</g>
<!-- EntityUserConnection&#45;&gt;pageInfo -->
<g id="edge9" class="edge"><title>EntityUserConnection&#45;&gt;pageInfo</title>
<path fill="none" stroke="mediumblue" d="M616.465,-212.025C645.674,-236.288 693,-283.807 693,-337 693,-337 693,-337 693,-487.8 693,-535.058 670.286,-586.13 654.321,-616.191"/>
<polygon fill="mediumblue" stroke="mediumblue" points="651.132,-614.727 649.412,-625.181 657.276,-618.082 651.132,-614.727"/>
</g>
<!-- EntityUserEdge -->
<g id="node7" class="node"><title>EntityUserEdge</title>
<polygon fill="none" stroke="black" points="664.919,-356 559.081,-356 559.081,-320 664.919,-320 664.919,-356"/>
<text text-anchor="middle" x="612" y="-333.8" font-family="Times,serif" font-size="14.00">EntityUserEdge</text>
</g>
<!-- userNodeField -->
<g id="node15" class="node"><title>userNodeField</title>
<text text-anchor="middle" x="638" y="-405.8" font-family="Times,serif" font-size="14.00">node</text>
</g>
<!-- EntityUserEdge&#45;&gt;userNodeField -->
<g id="edge11" class="edge"><title>EntityUserEdge&#45;&gt;userNodeField</title>
<path fill="none" stroke="mediumblue" d="M618.427,-356.303C621.355,-364.187 624.887,-373.696 628.14,-382.454"/>
<polygon fill="mediumblue" stroke="mediumblue" points="624.884,-383.74 631.647,-391.896 631.446,-381.303 624.884,-383.74"/>
</g>
<!-- cursor -->
<g id="node25" class="node"><title>cursor</title>
<text text-anchor="middle" x="717" y="-639.4" font-family="Times,serif" font-size="14.00">cursor</text>
</g>
<!-- EntityUserEdge&#45;&gt;cursor -->
<g id="edge12" class="edge"><title>EntityUserEdge&#45;&gt;cursor</title>
<path fill="none" stroke="mediumblue" d="M639.125,-356.112C651.552,-365.296 665.396,-377.675 674,-392 717.106,-463.769 719.943,-566.741 718.518,-615.292"/>
<polygon fill="mediumblue" stroke="mediumblue" points="715.019,-615.211 718.137,-625.337 722.014,-615.477 715.019,-615.211"/>
</g>
<!-- ID -->
<g id="node8" class="node"><title>ID</title>
<polygon fill="none" stroke="black" points="645,-890.4 591,-890.4 591,-854.4 645,-854.4 645,-890.4"/>
<text text-anchor="middle" x="618" y="-868.2" font-family="Times,serif" font-size="14.00">ID</text>
</g>
<!-- Int -->
<g id="node9" class="node"><title>Int</title>
<polygon fill="none" stroke="black" points="869,-890.4 815,-890.4 815,-854.4 869,-854.4 869,-890.4"/>
<text text-anchor="middle" x="842" y="-868.2" font-family="Times,serif" font-size="14.00">Int</text>
</g>
<!-- NodeInterface -->
<g id="node10" class="node"><title>NodeInterface</title>
<polygon fill="none" stroke="black" points="112.052,-504.8 15.948,-504.8 15.948,-468.8 112.052,-468.8 112.052,-504.8"/>
<text text-anchor="middle" x="64" y="-482.6" font-family="Times,serif" font-size="14.00">NodeInterface</text>
</g>
<!-- NodeInterface&#45;&gt;id -->
<g id="edge13" class="edge"><title>NodeInterface&#45;&gt;id</title>
<path fill="none" stroke="mediumblue" d="M76.6067,-505.103C82.5974,-513.326 89.8765,-523.317 96.4792,-532.379"/>
<polygon fill="mediumblue" stroke="mediumblue" points="93.8208,-534.674 102.538,-540.696 99.4785,-530.552 93.8208,-534.674"/>
</g>
<!-- PageInfo -->
<g id="node11" class="node"><title>PageInfo</title>
<polygon fill="none" stroke="black" points="770.035,-733.6 703.965,-733.6 703.965,-697.6 770.035,-697.6 770.035,-733.6"/>
<text text-anchor="middle" x="737" y="-711.4" font-family="Times,serif" font-size="14.00">PageInfo</text>
</g>
<!-- endCursor -->
<g id="node26" class="node"><title>endCursor</title>
<text text-anchor="middle" x="643" y="-783.4" font-family="Times,serif" font-size="14.00">endCursor</text>
</g>
<!-- PageInfo&#45;&gt;endCursor -->
<g id="edge14" class="edge"><title>PageInfo&#45;&gt;endCursor</title>
<path fill="none" stroke="mediumblue" d="M713.764,-733.903C701.812,-742.804 687.077,-753.777 674.153,-763.401"/>
<polygon fill="mediumblue" stroke="mediumblue" points="671.899,-760.716 665.969,-769.496 676.08,-766.33 671.899,-760.716"/>
</g>
<!-- hasNextPage -->
<g id="node27" class="node"><title>hasNextPage</title>
<text text-anchor="middle" x="839" y="-783.4" font-family="Times,serif" font-size="14.00">hasNextPage</text>
</g>
<!-- PageInfo&#45;&gt;hasNextPage -->
<g id="edge15" class="edge"><title>PageInfo&#45;&gt;hasNextPage</title>
<path fill="none" stroke="mediumblue" d="M761.952,-733.724C775.042,-742.707 791.26,-753.837 805.436,-763.566"/>
<polygon fill="mediumblue" stroke="mediumblue" points="803.726,-766.638 813.952,-769.41 807.687,-760.866 803.726,-766.638"/>
</g>
<!-- hasPreviousPage -->
<g id="node28" class="node"><title>hasPreviousPage</title>
<text text-anchor="middle" x="957" y="-783.4" font-family="Times,serif" font-size="14.00">hasPreviousPage</text>
</g>
<!-- PageInfo&#45;&gt;hasPreviousPage -->
<g id="edge16" class="edge"><title>PageInfo&#45;&gt;hasPreviousPage</title>
<path fill="none" stroke="mediumblue" d="M770.413,-727.231C803.061,-737.619 853.578,-753.693 893.818,-766.497"/>
<polygon fill="mediumblue" stroke="mediumblue" points="892.956,-769.895 903.547,-769.592 895.079,-763.225 892.956,-769.895"/>
</g>
<!-- startCursor -->
<g id="node29" class="node"><title>startCursor</title>
<text text-anchor="middle" x="737" y="-783.4" font-family="Times,serif" font-size="14.00">startCursor</text>
</g>
<!-- PageInfo&#45;&gt;startCursor -->
<g id="edge17" class="edge"><title>PageInfo&#45;&gt;startCursor</title>
<path fill="none" stroke="mediumblue" d="M737,-733.903C737,-741.617 737,-750.888 737,-759.488"/>
<polygon fill="mediumblue" stroke="mediumblue" points="733.5,-759.496 737,-769.496 740.5,-759.496 733.5,-759.496"/>
</g>
<!-- QueryRoot -->
<g id="node12" class="node"><title>QueryRoot</title>
<polygon fill="none" stroke="black" points="142.209,-356 63.7907,-356 63.7907,-320 142.209,-320 142.209,-356"/>
<text text-anchor="middle" x="103" y="-333.8" font-family="Times,serif" font-size="14.00">QueryRoot</text>
</g>
<!-- _node -->
<g id="node14" class="node"><title>_node</title>
<text text-anchor="middle" x="43" y="-405.8" font-family="Times,serif" font-size="14.00">node</text>
</g>
<!-- QueryRoot&#45;&gt;_node -->
<g id="edge18" class="edge"><title>QueryRoot&#45;&gt;_node</title>
<path fill="none" stroke="mediumblue" d="M88.1685,-356.303C80.9753,-364.695 72.2033,-374.93 64.3097,-384.139"/>
<polygon fill="mediumblue" stroke="mediumblue" points="61.5114,-382.025 57.6609,-391.896 66.8262,-386.581 61.5114,-382.025"/>
</g>
<!-- entityByPath -->
<g id="node17" class="node"><title>entityByPath</title>
<text text-anchor="middle" x="211" y="-482.6" font-family="Times,serif" font-size="14.00">entityByPath</text>
</g>
<!-- QueryRoot&#45;&gt;entityByPath -->
<g id="edge19" class="edge"><title>QueryRoot&#45;&gt;entityByPath</title>
<path fill="none" stroke="mediumblue" d="M119.764,-356.031C129.352,-366.124 141.352,-379.374 151,-392 167.744,-413.912 184.459,-440.531 195.977,-459.806"/>
<polygon fill="mediumblue" stroke="mediumblue" points="193.089,-461.799 201.191,-468.626 199.115,-458.236 193.089,-461.799"/>
</g>
<!-- root -->
<g id="node30" class="node"><title>root</title>
<text text-anchor="middle" x="115" y="-405.8" font-family="Times,serif" font-size="14.00">root</text>
</g>
<!-- QueryRoot&#45;&gt;root -->
<g id="edge20" class="edge"><title>QueryRoot&#45;&gt;root</title>
<path fill="none" stroke="mediumblue" d="M100.051,-356.303C100.583,-364.102 101.97,-373.491 103.817,-382.171"/>
<polygon fill="mediumblue" stroke="mediumblue" points="100.417,-383.001 106.173,-391.896 107.22,-381.353 100.417,-383.001"/>
</g>
<!-- userById -->
<g id="node31" class="node"><title>userById</title>
<text text-anchor="middle" x="559" y="-405.8" font-family="Times,serif" font-size="14.00">userById</text>
</g>
<!-- QueryRoot&#45;&gt;userById -->
<g id="edge21" class="edge"><title>QueryRoot&#45;&gt;userById</title>
<path fill="none" stroke="mediumblue" d="M142.161,-340.662C214.657,-344.453 374.508,-356.164 515.23,-391.889"/>
<polygon fill="mediumblue" stroke="mediumblue" points="514.77,-395.385 525.328,-394.503 516.524,-388.608 514.77,-395.385"/>
</g>
<!-- userByUuid -->
<g id="node32" class="node"><title>userByUuid</title>
<text text-anchor="middle" x="466" y="-405.8" font-family="Times,serif" font-size="14.00">userByUuid</text>
</g>
<!-- QueryRoot&#45;&gt;userByUuid -->
<g id="edge22" class="edge"><title>QueryRoot&#45;&gt;userByUuid</title>
<path fill="none" stroke="mediumblue" d="M142.192,-346.558C208.027,-359.253 340.805,-384.858 414.234,-399.018"/>
<polygon fill="mediumblue" stroke="mediumblue" points="413.706,-402.48 424.188,-400.937 415.031,-395.607 413.706,-402.48"/>
</g>
<!-- userQuery -->
<g id="node33" class="node"><title>userQuery</title>
<text text-anchor="middle" x="628" y="-113" font-family="Times,serif" font-size="14.00">userQuery</text>
</g>
<!-- QueryRoot&#45;&gt;userQuery -->
<g id="edge23" class="edge"><title>QueryRoot&#45;&gt;userQuery</title>
<path fill="none" stroke="mediumblue" d="M142.279,-335.314C259.043,-330.001 598.43,-312.261 639,-284 691.91,-247.143 706.958,-198.623 674,-143.2 673.512,-142.38 672.987,-141.585 672.428,-140.814"/>
<polygon fill="mediumblue" stroke="mediumblue" points="674.801,-138.232 665.339,-133.466 669.763,-143.093 674.801,-138.232"/>
</g>
<!-- String -->
<g id="node13" class="node"><title>String</title>
<polygon fill="none" stroke="black" points="717,-890.4 663,-890.4 663,-854.4 717,-854.4 717,-890.4"/>
<text text-anchor="middle" x="690" y="-868.2" font-family="Times,serif" font-size="14.00">String</text>
</g>
<!-- _node&#45;&gt;NodeInterface -->
<g id="edge34" class="edge"><title>_node&#45;&gt;NodeInterface</title>
<path fill="none" stroke="green" d="M47.8706,-428.349C50.4151,-437.412 53.5857,-448.705 56.4408,-458.875"/>
<polygon fill="green" stroke="green" points="53.083,-459.864 59.1558,-468.545 59.8225,-457.972 53.083,-459.864"/>
</g>
<!-- _node&#45;&gt;id -->
<g id="edge25" class="edge"><title>_node&#45;&gt;id</title>
<path fill="none" stroke="lightgray" d="M70.2255,-424.729C73.1469,-425.939 76.1082,-427.059 79,-428 97.0691,-433.882 108.885,-421.36 121,-436 142.783,-462.323 134.717,-503.862 125.78,-530.972"/>
<polygon fill="lightgray" stroke="lightgray" points="122.411,-529.999 122.372,-540.593 129.01,-532.336 122.411,-529.999"/>
</g>
<!-- userNodeField&#45;&gt;EntityUser -->
<g id="edge56" class="edge"><title>userNodeField&#45;&gt;EntityUser</title>
<path fill="none" stroke="green" d="M611.158,-428.161C594.957,-438.518 574.12,-451.84 556.559,-463.066"/>
<polygon fill="green" stroke="green" points="554.257,-460.384 547.717,-468.719 558.028,-466.282 554.257,-460.384"/>
</g>
<!-- _content_id -->
<g id="node16" class="node"><title>_content_id</title>
<text text-anchor="middle" x="373" y="-482.6" font-family="Times,serif" font-size="14.00">id</text>
</g>
<!-- _content_id&#45;&gt;Int -->
<g id="edge33" class="edge"><title>_content_id&#45;&gt;Int</title>
<path fill="none" stroke="green" d="M398.671,-505.059C403.049,-507.769 407.603,-510.448 412,-512.8 494.58,-556.977 578,-548.945 578,-642.6 578,-642.6 578,-642.6 578,-716.6 578,-760.294 561.224,-784.706 594,-813.6 611.683,-829.188 785.216,-810.479 806,-821.6 815.877,-826.885 823.708,-836.212 829.51,-845.377"/>
<polygon fill="green" stroke="green" points="826.63,-847.392 834.636,-854.332 832.705,-843.914 826.63,-847.392"/>
</g>
<!-- entityByPath&#45;&gt;Entity -->
<g id="edge39" class="edge"><title>entityByPath&#45;&gt;Entity</title>
<path fill="none" stroke="green" d="M216.438,-505.103C218.889,-512.902 221.84,-522.291 224.568,-530.971"/>
<polygon fill="green" stroke="green" points="221.287,-532.205 227.624,-540.696 227.965,-530.106 221.287,-532.205"/>
</g>
<!-- path -->
<g id="node35" class="node"><title>path</title>
<text text-anchor="middle" x="328" y="-554.6" font-family="Times,serif" font-size="14.00">path</text>
</g>
<!-- entityByPath&#45;&gt;path -->
<g id="edge26" class="edge"><title>entityByPath&#45;&gt;path</title>
<path fill="none" stroke="lightgray" d="M239.621,-504.924C255.376,-514.35 275.082,-526.14 291.886,-536.194"/>
<polygon fill="lightgray" stroke="lightgray" points="290.501,-539.444 300.88,-541.574 294.095,-533.437 290.501,-539.444"/>
</g>
<!-- entityId&#45;&gt;String -->
<g id="edge40" class="edge"><title>entityId&#45;&gt;String</title>
<path fill="none" stroke="green" d="M399.51,-661.788C413.276,-670.991 429.007,-683.363 440,-697.6 474.1,-741.762 442.374,-781.486 488,-813.6 518.201,-834.857 621.528,-804.007 654,-821.6 663.849,-826.936 671.675,-836.273 677.481,-845.43"/>
<polygon fill="green" stroke="green" points="674.6,-847.442 682.613,-854.374 680.671,-843.958 674.6,-847.442"/>
</g>
<!-- entityType&#45;&gt;DrupalEntityType -->
<g id="edge41" class="edge"><title>entityType&#45;&gt;DrupalEntityType</title>
<path fill="none" stroke="green" d="M278,-661.903C278,-669.617 278,-678.888 278,-687.488"/>
<polygon fill="green" stroke="green" points="274.5,-687.496 278,-697.496 281.5,-687.496 274.5,-687.496"/>
</g>
<!-- userEdges&#45;&gt;EntityUserEdge -->
<g id="edge59" class="edge"><title>userEdges&#45;&gt;EntityUserEdge</title>
<path fill="none" stroke="orange" d="M605.225,-284.303C606.217,-292.017 607.408,-301.288 608.514,-309.888"/>
<polygon fill="orange" stroke="orange" points="605.054,-310.424 609.801,-319.896 611.997,-309.531 605.054,-310.424"/>
</g>
<!-- label&#45;&gt;String -->
<g id="edge46" class="edge"><title>label&#45;&gt;String</title>
<path fill="none" stroke="green" d="M293.21,-805.64C298.095,-808.876 303.502,-811.808 309,-813.6 345.456,-825.483 620.061,-803.757 654,-821.6 663.915,-826.813 671.753,-836.127 677.549,-845.302"/>
<polygon fill="green" stroke="green" points="674.672,-847.321 682.667,-854.272 680.752,-843.852 674.672,-847.321"/>
</g>
<!-- pluralLabel&#45;&gt;String -->
<g id="edge50" class="edge"><title>pluralLabel&#45;&gt;String</title>
<path fill="none" stroke="green" d="M398.336,-801.682C414.258,-806.285 432.822,-810.964 450,-813.6 472.422,-817.041 634.007,-810.884 654,-821.6 663.873,-826.892 671.703,-836.221 677.505,-845.384"/>
<polygon fill="green" stroke="green" points="674.626,-847.399 682.632,-854.337 680.7,-843.92 674.626,-847.399"/>
</g>
<!-- id&#45;&gt;ID -->
<g id="edge45" class="edge"><title>id&#45;&gt;ID</title>
<path fill="none" stroke="green" d="M116.359,-576.943C119.174,-600.067 127.78,-640.75 154,-661.6 244.62,-733.659 321.229,-625.732 412,-697.6 455.355,-731.926 417.405,-774.997 457,-813.6 490.773,-846.526 544.609,-860.845 580.614,-866.971"/>
<polygon fill="green" stroke="green" points="580.298,-870.464 590.719,-868.555 581.382,-863.548 580.298,-870.464"/>
</g>
<!-- pageInfo&#45;&gt;PageInfo -->
<g id="edge48" class="edge"><title>pageInfo&#45;&gt;PageInfo</title>
<path fill="none" stroke="green" d="M662.973,-661.724C675.55,-670.707 691.132,-681.837 704.752,-691.566"/>
<polygon fill="green" stroke="green" points="702.763,-694.446 712.934,-697.41 706.831,-688.75 702.763,-694.446"/>
</g>
<!-- cursor&#45;&gt;String -->
<g id="edge37" class="edge"><title>cursor&#45;&gt;String</title>
<path fill="none" stroke="green" d="M744.05,-657.58C747.058,-658.962 750.087,-660.326 753,-661.6 870.667,-713.04 949.141,-663.168 1021,-769.6 1031.94,-785.807 1034.64,-799.586 1021,-813.6 1009.57,-825.349 740.497,-813.942 726,-821.6 716.095,-826.832 708.259,-836.15 702.461,-845.322"/>
<polygon fill="green" stroke="green" points="699.261,-843.869 697.342,-854.288 705.34,-847.34 699.261,-843.869"/>
</g>
<!-- endCursor&#45;&gt;String -->
<g id="edge38" class="edge"><title>endCursor&#45;&gt;String</title>
<path fill="none" stroke="green" d="M652.738,-805.756C659.229,-817.191 667.883,-832.436 675.217,-845.356"/>
<polygon fill="green" stroke="green" points="672.294,-847.297 680.274,-854.266 678.381,-843.841 672.294,-847.297"/>
</g>
<!-- hasNextPage&#45;&gt;Boolean -->
<g id="edge43" class="edge"><title>hasNextPage&#45;&gt;Boolean</title>
<path fill="none" stroke="green" d="M821.168,-805.725C816.147,-810.734 810.76,-816.292 806,-821.6 799.076,-829.32 791.873,-838.046 785.519,-846.012"/>
<polygon fill="green" stroke="green" points="782.693,-843.943 779.252,-853.964 788.191,-848.276 782.693,-843.943"/>
</g>
<!-- hasPreviousPage&#45;&gt;Boolean -->
<g id="edge44" class="edge"><title>hasPreviousPage&#45;&gt;Boolean</title>
<path fill="none" stroke="green" d="M918.294,-805.719C910.078,-808.783 901.358,-811.625 893,-813.6 874.105,-818.065 823.104,-812.413 806,-821.6 795.783,-827.088 787.239,-836.402 780.705,-845.502"/>
<polygon fill="green" stroke="green" points="777.663,-843.756 775.068,-854.028 783.503,-847.616 777.663,-843.756"/>
</g>
<!-- startCursor&#45;&gt;String -->
<g id="edge53" class="edge"><title>startCursor&#45;&gt;String</title>
<path fill="none" stroke="green" d="M727.262,-805.756C720.771,-817.191 712.117,-832.436 704.783,-845.356"/>
<polygon fill="green" stroke="green" points="701.619,-843.841 699.726,-854.266 707.706,-847.297 701.619,-843.841"/>
</g>
<!-- root&#45;&gt;QueryRoot -->
<g id="edge52" class="edge"><title>root&#45;&gt;QueryRoot</title>
<path fill="none" stroke="green" d="M117.963,-391.896C117.445,-384.124 116.069,-374.743 114.23,-366.051"/>
<polygon fill="green" stroke="green" points="117.627,-365.206 111.882,-356.303 110.821,-366.845 117.627,-365.206"/>
</g>
<!-- userById&#45;&gt;EntityUser -->
<g id="edge54" class="edge"><title>userById&#45;&gt;EntityUser</title>
<path fill="none" stroke="green" d="M550.187,-428.349C545.486,-437.601 539.605,-449.177 534.356,-459.509"/>
<polygon fill="green" stroke="green" points="531.175,-458.045 529.766,-468.545 537.415,-461.215 531.175,-458.045"/>
</g>
<!-- userById&#45;&gt;_content_id -->
<g id="edge27" class="edge"><title>userById&#45;&gt;_content_id</title>
<path fill="none" stroke="lightgray" d="M524.9,-425.803C522.257,-426.641 519.604,-427.389 517,-428 494.217,-433.342 432.634,-424.961 412,-436 401.874,-441.417 393.512,-450.719 387.164,-459.828"/>
<polygon fill="lightgray" stroke="lightgray" points="384.141,-458.058 381.702,-468.368 390.039,-461.829 384.141,-458.058"/>
</g>
<!-- userByUuid&#45;&gt;EntityUser -->
<g id="edge55" class="edge"><title>userByUuid&#45;&gt;EntityUser</title>
<path fill="none" stroke="green" d="M478.756,-428.349C485.767,-437.884 494.594,-449.888 502.363,-460.454"/>
<polygon fill="green" stroke="green" points="499.569,-462.562 508.313,-468.545 505.209,-458.416 499.569,-462.562"/>
</g>
<!-- uuid -->
<g id="node36" class="node"><title>uuid</title>
<text text-anchor="middle" x="301" y="-482.6" font-family="Times,serif" font-size="14.00">uuid</text>
</g>
<!-- userByUuid&#45;&gt;uuid -->
<g id="edge28" class="edge"><title>userByUuid&#45;&gt;uuid</title>
<path fill="none" stroke="lightgray" d="M424.184,-411.37C397.413,-413.383 362.959,-419.429 337,-436 327.828,-441.855 320.25,-450.95 314.451,-459.774"/>
<polygon fill="lightgray" stroke="lightgray" points="311.429,-458.008 309.253,-468.377 317.42,-461.628 311.429,-458.008"/>
</g>
<!-- userQuery&#45;&gt;EntityUserConnection -->
<g id="edge57" class="edge"><title>userQuery&#45;&gt;EntityUserConnection</title>
<path fill="none" stroke="green" d="M620.114,-135.549C615.952,-144.706 610.754,-156.141 606.094,-166.392"/>
<polygon fill="green" stroke="green" points="602.795,-165.193 601.843,-175.745 609.167,-168.09 602.795,-165.193"/>
</g>
<!-- first -->
<g id="node37" class="node"><title>first</title>
<text text-anchor="middle" x="933" y="-639.4" font-family="Times,serif" font-size="14.00">first</text>
</g>
<!-- userQuery&#45;&gt;first -->
<g id="edge30" class="edge"><title>userQuery&#45;&gt;first</title>
<path fill="none" stroke="lightgray" d="M665.297,-120.389C709.722,-123.528 780.839,-130.397 804,-143.2 866.046,-177.497 907,-194.106 907,-265 907,-265 907,-265 907,-487.8 907,-533.142 917.983,-584.935 925.672,-615.64"/>
<polygon fill="lightgray" stroke="lightgray" points="922.348,-616.766 928.231,-625.577 929.126,-615.02 922.348,-616.766"/>
</g>
<!-- last -->
<g id="node38" class="node"><title>last</title>
<text text-anchor="middle" x="1005" y="-639.4" font-family="Times,serif" font-size="14.00">last</text>
</g>
<!-- userQuery&#45;&gt;last -->
<g id="edge32" class="edge"><title>userQuery&#45;&gt;last</title>
<path fill="none" stroke="lightgray" d="M665.478,-118.957C723.059,-120.654 830.182,-126.079 864,-143.2 929.344,-176.281 975,-191.759 975,-265 975,-265 975,-265 975,-487.8 975,-533.102 987.536,-584.523 996.401,-615.22"/>
<polygon fill="lightgray" stroke="lightgray" points="993.154,-616.581 999.357,-625.17 999.864,-614.587 993.154,-616.581"/>
</g>
<!-- before -->
<g id="node39" class="node"><title>before</title>
<text text-anchor="middle" x="789" y="-639.4" font-family="Times,serif" font-size="14.00">before</text>
</g>
<!-- userQuery&#45;&gt;before -->
<g id="edge31" class="edge"><title>userQuery&#45;&gt;before</title>
<path fill="none" stroke="lightgray" d="M665.296,-126.952C676.251,-130.728 687.761,-135.986 697,-143.2 748.436,-183.362 779,-199.742 779,-265 779,-265 779,-265 779,-487.8 779,-532.609 783.224,-584.562 786.182,-615.444"/>
<polygon fill="lightgray" stroke="lightgray" points="782.703,-615.834 787.166,-625.443 789.669,-615.148 782.703,-615.834"/>
</g>
<!-- after -->
<g id="node40" class="node"><title>after</title>
<text text-anchor="middle" x="861" y="-639.4" font-family="Times,serif" font-size="14.00">after</text>
</g>
<!-- userQuery&#45;&gt;after -->
<g id="edge29" class="edge"><title>userQuery&#45;&gt;after</title>
<path fill="none" stroke="lightgray" d="M665.278,-119.542C690.034,-121.925 722.384,-128.017 747,-143.2 805.9,-179.528 844,-195.798 844,-265 844,-265 844,-265 844,-487.8 844,-532.784 851.181,-584.684 856.209,-615.509"/>
<polygon fill="lightgray" stroke="lightgray" points="852.776,-616.204 857.882,-625.487 859.68,-615.046 852.776,-616.204"/>
</g>
<!-- query&#45;&gt;QueryRoot -->
<g id="edge51" class="edge"><title>query&#45;&gt;QueryRoot</title>
<path fill="none" stroke="green" d="M101.494,-284.303C101.715,-292.017 101.98,-301.288 102.225,-309.888"/>
<polygon fill="green" stroke="green" points="98.727,-310 102.511,-319.896 105.724,-309.8 98.727,-310"/>
</g>
<!-- path&#45;&gt;String -->
<g id="edge49" class="edge"><title>path&#45;&gt;String</title>
<path fill="none" stroke="green" d="M355.372,-565.842C372.423,-570.75 393.908,-579.152 409,-592.8 429.593,-611.423 502.669,-798.548 526,-813.6 549.948,-829.051 629.039,-807.845 654,-821.6 663.671,-826.929 671.406,-836.089 677.19,-845.111"/>
<polygon fill="green" stroke="green" points="674.272,-847.055 682.324,-853.941 680.323,-843.537 674.272,-847.055"/>
</g>
<!-- uuid&#45;&gt;String -->
<g id="edge58" class="edge"><title>uuid&#45;&gt;String</title>
<path fill="none" stroke="green" d="M325.314,-504.871C329.205,-507.549 333.201,-510.268 337,-512.8 426.107,-572.197 540,-535.511 540,-642.6 540,-642.6 540,-642.6 540,-716.6 540,-761.011 530.275,-784.704 564,-813.6 579.247,-826.664 636.543,-811.68 654,-821.6 663.6,-827.055 671.322,-836.24 677.115,-845.246"/>
<polygon fill="green" stroke="green" points="674.194,-847.184 682.264,-854.048 680.236,-843.649 674.194,-847.184"/>
</g>
<!-- first&#45;&gt;Int -->
<g id="edge42" class="edge"><title>first&#45;&gt;Int</title>
<path fill="none" stroke="green" d="M960.257,-658.235C963.172,-659.463 966.123,-660.613 969,-661.6 1038.35,-685.4 1084.16,-640.375 1130,-697.6 1162.23,-737.837 1162.67,-773.719 1130,-813.6 1098.72,-851.779 950.094,-865.267 879.456,-869.576"/>
<polygon fill="green" stroke="green" points="879.001,-866.096 869.22,-870.169 879.406,-873.084 879.001,-866.096"/>
</g>
<!-- last&#45;&gt;Int -->
<g id="edge47" class="edge"><title>last&#45;&gt;Int</title>
<path fill="none" stroke="green" d="M1032.21,-645.451C1067.01,-648.173 1126.11,-658.648 1154,-697.6 1184.02,-739.517 1187.98,-773.971 1155,-813.6 1120.34,-855.247 955.109,-867.005 879.691,-870.228"/>
<polygon fill="green" stroke="green" points="879.094,-866.749 869.241,-870.644 879.373,-873.743 879.094,-866.749"/>
</g>
<!-- before&#45;&gt;String -->
<g id="edge36" class="edge"><title>before&#45;&gt;String</title>
<path fill="none" stroke="green" d="M816.285,-658.156C819.194,-659.4 822.137,-660.575 825,-661.6 886.701,-683.697 911.108,-665.063 968,-697.6 1020.47,-727.609 1081.19,-770.316 1039,-813.6 1026.86,-826.056 741.387,-813.487 726,-821.6 716.091,-826.824 708.255,-836.141 702.457,-845.314"/>
<polygon fill="green" stroke="green" points="699.256,-843.862 697.338,-854.282 705.335,-847.332 699.256,-843.862"/>
</g>
<!-- after&#45;&gt;String -->
<g id="edge35" class="edge"><title>after&#45;&gt;String</title>
<path fill="none" stroke="green" d="M888.356,-657.968C891.252,-659.248 894.171,-660.483 897,-661.6 945.632,-680.804 966.981,-666.484 1009,-697.6 1054.12,-731.01 1098.22,-773.428 1059,-813.6 1046.07,-826.841 742.376,-812.982 726,-821.6 716.087,-826.817 708.25,-836.132 702.453,-845.306"/>
<polygon fill="green" stroke="green" points="699.251,-843.856 697.335,-854.276 705.331,-847.325 699.251,-843.856"/>
</g>
</g>
</svg>
